# xmcd
#
# Track frame offsets:
#	150
#	26357
#	41373
#	51601
#	91967
#	119275
#	130680
#	180452
#	208087
#	241339
#
# Disc length: 3760 seconds
#
# Revision: 1
# Processed by: cddbd v1.5.1PL0 Copyright (c) Steve Scherf et al.
# Submitted via: EasyCDDAExtractor 5.0.6
#
DISCID=810eae0a
DTITLE=Пангормонъ - О Жизни...
DYEAR=2005
DGENRE=Other
TTITLE0=Начальная
TTITLE1=Прохожие
TTITLE2=Крышка
TTITLE3=Пират
TTITLE4=Шпион
TTITLE5=На обоях
TTITLE6=О грустном
TTITLE7=Если с другом вышел в путь...
TTITLE8=Чайковский
TTITLE9=О Жизни...
EXTD=
EXTT0=
EXTT1=
EXTT2=
EXTT3=
EXTT4=
EXTT5=
EXTT6=
EXTT7=
EXTT8=
EXTT9=
PLAYORDER=
